<svg width="600" height="600" viewBox="0 0 600 600" fill="none" xmlns="http://www.w3.org/2000/svg">
<rect width="600" height="600" rx="100" fill="#195EE6"/>
<path d="M250 300L283.333 333.333L350 266.667M433.333 316.666C433.333 399.999 375 441.666 305.667 465.833C302.036 467.063 298.092 467.004 294.5 465.666C225 441.666 166.667 399.999 166.667 316.666V199.999C166.667 195.579 168.423 191.34 171.548 188.214C174.674 185.089 178.913 183.333 183.333 183.333C216.667 183.333 258.333 163.333 287.333 137.999C290.864 134.983 295.356 133.325 300 133.325C304.644 133.325 309.136 134.983 312.667 137.999C341.833 163.499 383.333 183.333 416.667 183.333C421.087 183.333 425.326 185.089 428.452 188.214C431.578 191.34 433.333 195.579 433.333 199.999V316.666Z" stroke="white" stroke-width="35" stroke-linecap="round" stroke-linejoin="round"/>
</svg>
