<svg width="100" height="40" viewBox="0 0 100 40" fill="none" xmlns="http://www.w3.org/2000/svg">
<rect width="40" height="40" rx="8" fill="#195EE6"/>
<circle cx="20" cy="20" r="15" fill="#144BB8"/>
<path d="M53.598 27V12.4545H55.7926V25.1108H62.3835V27H53.598ZM69.3118 27.2202C68.2891 27.2202 67.3965 26.9858 66.6342 26.517C65.8719 26.0483 65.2801 25.3925 64.8587 24.5497C64.4373 23.7069 64.2266 22.7221 64.2266 21.5952C64.2266 20.4635 64.4373 19.474 64.8587 18.6264C65.2801 17.7789 65.8719 17.1207 66.6342 16.652C67.3965 16.1832 68.2891 15.9489 69.3118 15.9489C70.3345 15.9489 71.227 16.1832 71.9893 16.652C72.7517 17.1207 73.3435 17.7789 73.7649 18.6264C74.1863 19.474 74.397 20.4635 74.397 21.5952C74.397 22.7221 74.1863 23.7069 73.7649 24.5497C73.3435 25.3925 72.7517 26.0483 71.9893 26.517C71.227 26.9858 70.3345 27.2202 69.3118 27.2202ZM69.3189 25.4375C69.9818 25.4375 70.531 25.2623 70.9666 24.9119C71.4022 24.5616 71.7242 24.0952 71.9325 23.5128C72.1456 22.9304 72.2521 22.2888 72.2521 21.5881C72.2521 20.892 72.1456 20.2528 71.9325 19.6705C71.7242 19.0833 71.4022 18.6122 70.9666 18.2571C70.531 17.902 69.9818 17.7244 69.3189 17.7244C68.6513 17.7244 68.0973 17.902 67.657 18.2571C67.2214 18.6122 66.897 19.0833 66.6839 19.6705C66.4756 20.2528 66.3714 20.892 66.3714 21.5881C66.3714 22.2888 66.4756 22.9304 66.6839 23.5128C66.897 24.0952 67.2214 24.5616 67.657 24.9119C68.0973 25.2623 68.6513 25.4375 69.3189 25.4375ZM81.3413 31.3182C80.4748 31.3182 79.729 31.2045 79.104 30.9773C78.4838 30.75 77.9772 30.4493 77.5842 30.0753C77.1912 29.7012 76.8976 29.2917 76.7035 28.8466L78.5288 28.0938C78.6566 28.3021 78.8271 28.5223 79.0401 28.7543C79.2579 28.991 79.5515 29.1922 79.9208 29.358C80.2949 29.5237 80.7754 29.6065 81.3626 29.6065C82.1675 29.6065 82.8327 29.41 83.3583 29.017C83.8839 28.6288 84.1467 28.0085 84.1467 27.1562V25.0114H84.0117C83.8839 25.2434 83.6992 25.5014 83.4577 25.7855C83.221 26.0696 82.8943 26.3158 82.4776 26.5241C82.061 26.7325 81.5188 26.8366 80.8512 26.8366C79.9895 26.8366 79.2129 26.6354 78.5217 26.233C77.8351 25.8258 77.2906 25.2268 76.8881 24.4361C76.4904 23.6406 76.2915 22.6629 76.2915 21.5028C76.2915 20.3428 76.488 19.3485 76.881 18.5199C77.2788 17.6913 77.8233 17.0568 78.5146 16.6165C79.2058 16.1714 79.9895 15.9489 80.8654 15.9489C81.5425 15.9489 82.0894 16.0625 82.506 16.2898C82.9227 16.5123 83.247 16.7727 83.479 17.071C83.7158 17.3693 83.8981 17.6321 84.0259 17.8594H84.1822V16.0909H86.2631V27.2415C86.2631 28.179 86.0453 28.9484 85.6097 29.5497C85.1741 30.151 84.5846 30.5961 83.8413 30.8849C83.1026 31.1738 82.2693 31.3182 81.3413 31.3182ZM81.32 25.0753C81.9308 25.0753 82.4469 24.9332 82.8683 24.6491C83.2944 24.3603 83.6164 23.9484 83.8342 23.4134C84.0567 22.8736 84.168 22.2273 84.168 21.4744C84.168 20.7405 84.0591 20.0942 83.8413 19.5355C83.6235 18.9768 83.3039 18.5412 82.8825 18.2287C82.4611 17.9115 81.9402 17.7528 81.32 17.7528C80.6808 17.7528 80.1481 17.9186 79.7219 18.25C79.2958 18.5767 78.9738 19.0218 78.756 19.5852C78.543 20.1487 78.4364 20.7784 78.4364 21.4744C78.4364 22.1894 78.5453 22.8168 78.7631 23.3565C78.9809 23.8963 79.3029 24.3177 79.729 24.6207C80.1599 24.9238 80.6902 25.0753 81.32 25.0753ZM93.7063 27.2202C92.6836 27.2202 91.7911 26.9858 91.0288 26.517C90.2665 26.0483 89.6746 25.3925 89.2532 24.5497C88.8318 23.7069 88.6211 22.7221 88.6211 21.5952C88.6211 20.4635 88.8318 19.474 89.2532 18.6264C89.6746 17.7789 90.2665 17.1207 91.0288 16.652C91.7911 16.1832 92.6836 15.9489 93.7063 15.9489C94.729 15.9489 95.6216 16.1832 96.3839 16.652C97.1462 17.1207 97.738 17.7789 98.1594 18.6264C98.5808 19.474 98.7915 20.4635 98.7915 21.5952C98.7915 22.7221 98.5808 23.7069 98.1594 24.5497C97.738 25.3925 97.1462 26.0483 96.3839 26.517C95.6216 26.9858 94.729 27.2202 93.7063 27.2202ZM93.7134 25.4375C94.3763 25.4375 94.9255 25.2623 95.3612 24.9119C95.7968 24.5616 96.1187 24.0952 96.3271 23.5128C96.5401 22.9304 96.6467 22.2888 96.6467 21.5881C96.6467 20.892 96.5401 20.2528 96.3271 19.6705C96.1187 19.0833 95.7968 18.6122 95.3612 18.2571C94.9255 17.902 94.3763 17.7244 93.7134 17.7244C93.0458 17.7244 92.4918 17.902 92.0515 18.2571C91.6159 18.6122 91.2915 19.0833 91.0785 19.6705C90.8701 20.2528 90.766 20.892 90.766 21.5881C90.766 22.2888 90.8701 22.9304 91.0785 23.5128C91.2915 24.0952 91.6159 24.5616 92.0515 24.9119C92.4918 25.2623 93.0458 25.4375 93.7134 25.4375Z" fill="#030712"/>
</svg>
