<svg width="101" height="40" viewBox="0 0 101 40" fill="none" xmlns="http://www.w3.org/2000/svg">
<rect width="40" height="40" rx="8" fill="#FF9900"/>
<circle opacity="0.2" cx="20" cy="20" r="15" fill="black"/>
<path d="M53.4347 27V12.4545H56.0696V24.7912H62.4759V27H53.4347ZM69.4077 27.2131C68.3423 27.2131 67.419 26.9787 66.6378 26.5099C65.8565 26.0412 65.2505 25.3854 64.8196 24.5426C64.3935 23.6998 64.1804 22.715 64.1804 21.5881C64.1804 20.4612 64.3935 19.474 64.8196 18.6264C65.2505 17.7789 65.8565 17.1207 66.6378 16.652C67.419 16.1832 68.3423 15.9489 69.4077 15.9489C70.473 15.9489 71.3963 16.1832 72.1776 16.652C72.9588 17.1207 73.5625 17.7789 73.9886 18.6264C74.4195 19.474 74.6349 20.4612 74.6349 21.5881C74.6349 22.715 74.4195 23.6998 73.9886 24.5426C73.5625 25.3854 72.9588 26.0412 72.1776 26.5099C71.3963 26.9787 70.473 27.2131 69.4077 27.2131ZM69.4219 25.1534C69.9995 25.1534 70.4825 24.9948 70.8707 24.6776C71.259 24.3556 71.5478 23.9247 71.7372 23.3849C71.9313 22.8452 72.0284 22.2438 72.0284 21.581C72.0284 20.9134 71.9313 20.3097 71.7372 19.7699C71.5478 19.2254 71.259 18.7921 70.8707 18.4702C70.4825 18.1482 69.9995 17.9872 69.4219 17.9872C68.83 17.9872 68.3376 18.1482 67.9446 18.4702C67.5563 18.7921 67.2652 19.2254 67.071 19.7699C66.8816 20.3097 66.7869 20.9134 66.7869 21.581C66.7869 22.2438 66.8816 22.8452 67.071 23.3849C67.2652 23.9247 67.5563 24.3556 67.9446 24.6776C68.3376 24.9948 68.83 25.1534 69.4219 25.1534ZM81.5614 31.3182C80.6381 31.3182 79.8451 31.1927 79.1822 30.9418C78.5193 30.6955 77.9866 30.3641 77.5842 29.9474C77.1817 29.5308 76.9023 29.0691 76.7461 28.5625L79.0614 28.0014C79.1656 28.2145 79.3171 28.4252 79.516 28.6335C79.7148 28.8466 79.9824 29.0218 80.3185 29.1591C80.6594 29.3011 81.0879 29.3722 81.604 29.3722C82.3332 29.3722 82.9369 29.1946 83.4151 28.8395C83.8933 28.4891 84.1325 27.9115 84.1325 27.1065V25.0398H84.0046C83.872 25.3049 83.6779 25.5772 83.4222 25.8565C83.1713 26.1359 82.8375 26.3703 82.4208 26.5597C82.0089 26.7491 81.4904 26.8438 80.8654 26.8438C80.0273 26.8438 79.2674 26.6473 78.5856 26.2543C77.9085 25.8565 77.3687 25.2647 76.9663 24.4787C76.5685 23.688 76.3697 22.6984 76.3697 21.5099C76.3697 20.312 76.5685 19.3011 76.9663 18.4773C77.3687 17.6487 77.9109 17.0213 78.5927 16.5952C79.2745 16.1643 80.0344 15.9489 80.8725 15.9489C81.5117 15.9489 82.0373 16.0578 82.4492 16.2756C82.8659 16.4886 83.1973 16.7467 83.4435 17.0497C83.6897 17.348 83.8768 17.6297 84.0046 17.8949H84.1467V16.0909H86.6822V27.1776C86.6822 28.1103 86.4596 28.8821 86.0146 29.4929C85.5695 30.1037 84.9611 30.5606 84.1893 30.8636C83.4175 31.1667 82.5415 31.3182 81.5614 31.3182ZM81.5827 24.8267C82.1272 24.8267 82.5913 24.6941 82.9748 24.429C83.3583 24.1638 83.6495 23.7827 83.8484 23.2855C84.0472 22.7884 84.1467 22.1918 84.1467 21.4957C84.1467 20.8092 84.0472 20.2079 83.8484 19.6918C83.6542 19.1757 83.3654 18.7756 82.9819 18.4915C82.6031 18.2027 82.1367 18.0582 81.5827 18.0582C81.0098 18.0582 80.5316 18.2074 80.1481 18.5057C79.7646 18.804 79.4757 19.2135 79.2816 19.7344C79.0875 20.2505 78.9904 20.8376 78.9904 21.4957C78.9904 22.1634 79.0875 22.7481 79.2816 23.25C79.4805 23.7472 79.7717 24.1354 80.1552 24.4148C80.5434 24.6894 81.0193 24.8267 81.5827 24.8267ZM94.0756 27.2131C93.0103 27.2131 92.087 26.9787 91.3058 26.5099C90.5245 26.0412 89.9184 25.3854 89.4876 24.5426C89.0614 23.6998 88.8484 22.715 88.8484 21.5881C88.8484 20.4612 89.0614 19.474 89.4876 18.6264C89.9184 17.7789 90.5245 17.1207 91.3058 16.652C92.087 16.1832 93.0103 15.9489 94.0756 15.9489C95.141 15.9489 96.0643 16.1832 96.8455 16.652C97.6268 17.1207 98.2305 17.7789 98.6566 18.6264C99.0875 19.474 99.3029 20.4612 99.3029 21.5881C99.3029 22.715 99.0875 23.6998 98.6566 24.5426C98.2305 25.3854 97.6268 26.0412 96.8455 26.5099C96.0643 26.9787 95.141 27.2131 94.0756 27.2131ZM94.0898 25.1534C94.6675 25.1534 95.1504 24.9948 95.5387 24.6776C95.927 24.3556 96.2158 23.9247 96.4052 23.3849C96.5993 22.8452 96.6964 22.2438 96.6964 21.581C96.6964 20.9134 96.5993 20.3097 96.4052 19.7699C96.2158 19.2254 95.927 18.7921 95.5387 18.4702C95.1504 18.1482 94.6675 17.9872 94.0898 17.9872C93.498 17.9872 93.0056 18.1482 92.6126 18.4702C92.2243 18.7921 91.9331 19.2254 91.739 19.7699C91.5496 20.3097 91.4549 20.9134 91.4549 21.581C91.4549 22.2438 91.5496 22.8452 91.739 23.3849C91.9331 23.9247 92.2243 24.3556 92.6126 24.6776C93.0056 24.9948 93.498 25.1534 94.0898 25.1534Z" fill="#030712"/>
</svg>
